<?xml version="1.0" encoding="UTF-8" standalone="no"?>
<!DOCTYPE svg PUBLIC "-//W3C//DTD SVG 1.1//EN"
 "http://www.w3.org/Graphics/SVG/1.1/DTD/svg11.dtd">
<!-- Generated by graphviz version 2.40.1 (20161225.0304)
 -->
<!-- Title: dependencies Pages: 1 -->
<svg width="2300pt" height="284pt"
 viewBox="0.00 0.00 2300.00 284.00" xmlns="http://www.w3.org/2000/svg" xmlns:xlink="http://www.w3.org/1999/xlink">
<g id="graph0" class="graph" transform="scale(1 1) rotate(0) translate(4 280)">
<title>dependencies</title>
<polygon fill="#ffffff" stroke="transparent" points="-4,4 -4,-280 2296,-280 2296,4 -4,4"/>
<text text-anchor="start" x="1125.0091" y="-42.4" font-family="sans-serif" font-weight="bold" font-size="14.00" fill="#000000">Legend</text>
<polygon fill="#ffffb3" stroke="transparent" points="912,-10 912,-30 932,-30 932,-10 912,-10"/>
<text text-anchor="start" x="935.629" y="-15.4" font-family="sans-serif" font-size="14.00" fill="#000000"> &#160;Declarations</text>
<polygon fill="#8dd3c7" stroke="transparent" points="1025,-10 1025,-30 1045,-30 1045,-10 1025,-10"/>
<text text-anchor="start" x="1048.7251" y="-15.4" font-family="sans-serif" font-size="14.00" fill="#000000"> &#160;Module</text>
<polygon fill="#80b1d3" stroke="transparent" points="1111,-10 1111,-30 1131,-30 1131,-10 1111,-10"/>
<text text-anchor="start" x="1134.7812" y="-15.4" font-family="sans-serif" font-size="14.00" fill="#000000"> &#160;Bootstrap</text>
<polygon fill="#fdb462" stroke="transparent" points="1208,-10 1208,-30 1228,-30 1228,-10 1208,-10"/>
<text text-anchor="start" x="1231.6732" y="-15.4" font-family="sans-serif" font-size="14.00" fill="#000000"> &#160;Providers</text>
<polygon fill="#fb8072" stroke="transparent" points="1304,-10 1304,-30 1324,-30 1324,-10 1304,-10"/>
<text text-anchor="start" x="1327.7258" y="-15.4" font-family="sans-serif" font-size="14.00" fill="#000000"> &#160;Exports</text>
<g id="clust1" class="cluster">
<title>cluster_AppModule</title>
<polygon fill="none" stroke="#000000" stroke-dasharray="1,5" points="8,-70 8,-268 298,-268 298,-70 8,-70"/>
</g>
<g id="clust2" class="cluster">
<title>cluster_AppModule_declarations</title>
<polygon fill="none" stroke="#000000" points="168,-78 168,-130 290,-130 290,-78 168,-78"/>
</g>
<g id="clust4" class="cluster">
<title>cluster_AppModule_imports</title>
<polygon fill="none" stroke="#000000" points="16,-78 16,-130 160,-130 160,-78 16,-78"/>
</g>
<g id="clust6" class="cluster">
<title>cluster_AppModule_bootstrap</title>
<polygon fill="none" stroke="#000000" points="96,-208 96,-260 220,-260 220,-208 96,-208"/>
</g>
<g id="clust14" class="cluster">
<title>cluster_CreatorsPageModule</title>
<polygon fill="none" stroke="#000000" stroke-dasharray="1,5" points="306,-70 306,-195 632,-195 632,-70 306,-70"/>
</g>
<g id="clust15" class="cluster">
<title>cluster_CreatorsPageModule_declarations</title>
<polygon fill="none" stroke="#000000" points="518,-78 518,-130 624,-130 624,-78 518,-78"/>
</g>
<g id="clust17" class="cluster">
<title>cluster_CreatorsPageModule_imports</title>
<polygon fill="none" stroke="#000000" points="314,-78 314,-130 510,-130 510,-78 314,-78"/>
</g>
<g id="clust27" class="cluster">
<title>cluster_DetailPageModule</title>
<polygon fill="none" stroke="#000000" stroke-dasharray="1,5" points="640,-70 640,-195 940,-195 940,-70 640,-70"/>
</g>
<g id="clust28" class="cluster">
<title>cluster_DetailPageModule_declarations</title>
<polygon fill="none" stroke="#000000" points="838,-78 838,-130 932,-130 932,-78 838,-78"/>
</g>
<g id="clust30" class="cluster">
<title>cluster_DetailPageModule_imports</title>
<polygon fill="none" stroke="#000000" points="648,-78 648,-130 830,-130 830,-78 648,-78"/>
</g>
<g id="clust40" class="cluster">
<title>cluster_EndPageModule</title>
<polygon fill="none" stroke="#000000" stroke-dasharray="1,5" points="948,-70 948,-195 1224,-195 1224,-70 948,-70"/>
</g>
<g id="clust41" class="cluster">
<title>cluster_EndPageModule_declarations</title>
<polygon fill="none" stroke="#000000" points="1134,-78 1134,-130 1216,-130 1216,-78 1134,-78"/>
</g>
<g id="clust43" class="cluster">
<title>cluster_EndPageModule_imports</title>
<polygon fill="none" stroke="#000000" points="956,-78 956,-130 1126,-130 1126,-78 956,-78"/>
</g>
<g id="clust53" class="cluster">
<title>cluster_IndexPageModule</title>
<polygon fill="none" stroke="#000000" stroke-dasharray="1,5" points="1232,-70 1232,-195 1528,-195 1528,-70 1232,-70"/>
</g>
<g id="clust54" class="cluster">
<title>cluster_IndexPageModule_declarations</title>
<polygon fill="none" stroke="#000000" points="1428,-78 1428,-130 1520,-130 1520,-78 1428,-78"/>
</g>
<g id="clust56" class="cluster">
<title>cluster_IndexPageModule_imports</title>
<polygon fill="none" stroke="#000000" points="1240,-78 1240,-130 1420,-130 1420,-78 1240,-78"/>
</g>
<g id="clust66" class="cluster">
<title>cluster_LoginPageModule</title>
<polygon fill="none" stroke="#000000" stroke-dasharray="1,5" points="1536,-70 1536,-195 1834,-195 1834,-70 1536,-70"/>
</g>
<g id="clust67" class="cluster">
<title>cluster_LoginPageModule_declarations</title>
<polygon fill="none" stroke="#000000" points="1734,-78 1734,-130 1826,-130 1826,-78 1734,-78"/>
</g>
<g id="clust69" class="cluster">
<title>cluster_LoginPageModule_imports</title>
<polygon fill="none" stroke="#000000" points="1544,-78 1544,-130 1726,-130 1726,-78 1544,-78"/>
</g>
<g id="clust85" class="cluster">
<title>cluster_SigninPageModule</title>
<polygon fill="none" stroke="#000000" stroke-dasharray="1,5" points="1842,-70 1842,-195 2146,-195 2146,-70 1842,-70"/>
</g>
<g id="clust86" class="cluster">
<title>cluster_SigninPageModule_declarations</title>
<polygon fill="none" stroke="#000000" points="2042,-78 2042,-130 2138,-130 2138,-78 2042,-78"/>
</g>
<g id="clust88" class="cluster">
<title>cluster_SigninPageModule_imports</title>
<polygon fill="none" stroke="#000000" points="1850,-78 1850,-130 2034,-130 2034,-78 1850,-78"/>
</g>
<g id="clust98" class="cluster">
<title>cluster_TabsPageModule</title>
<polygon fill="none" stroke="#000000" stroke-dasharray="1,5" points="2154,-70 2154,-195 2284,-195 2284,-70 2154,-70"/>
</g>
<g id="clust99" class="cluster">
<title>cluster_TabsPageModule_declarations</title>
<polygon fill="none" stroke="#000000" points="2176,-78 2176,-130 2262,-130 2262,-78 2176,-78"/>
</g>
<!-- AppComponent -->
<g id="node1" class="node">
<title>AppComponent</title>
<polygon fill="#ffffb3" stroke="#000000" points="281.9399,-122 176.0601,-122 176.0601,-86 281.9399,-86 281.9399,-122"/>
<text text-anchor="middle" x="229" y="-99.8" font-family="Times,serif" font-size="14.00" fill="#000000">AppComponent</text>
</g>
<!-- AppModule -->
<g id="node2" class="node">
<title>AppModule</title>
<polygon fill="#8dd3c7" stroke="#000000" points="199.6571,-187 196.6571,-191 175.6571,-191 172.6571,-187 116.3429,-187 116.3429,-151 199.6571,-151 199.6571,-187"/>
<text text-anchor="middle" x="158" y="-164.8" font-family="Times,serif" font-size="14.00" fill="#000000">AppModule</text>
</g>
<!-- AppComponent&#45;&gt;AppModule -->
<g id="edge1" class="edge">
<title>AppComponent&#45;&gt;AppModule</title>
<path fill="none" stroke="#000000" d="M188.0544,-122.1061C188.0544,-122.1061 188.0544,-140.991 188.0544,-140.991"/>
<polygon fill="#000000" stroke="#000000" points="184.5544,-140.9909 188.0544,-150.991 191.5544,-140.991 184.5544,-140.9909"/>
</g>
<!-- AppComponent  -->
<g id="node4" class="node">
<title>AppComponent </title>
<polygon fill="#80b1d3" stroke="#000000" points="212.439,-252 103.561,-252 103.561,-216 212.439,-216 212.439,-252"/>
<text text-anchor="middle" x="158" y="-229.8" font-family="Times,serif" font-size="14.00" fill="#000000">AppComponent </text>
</g>
<!-- AppModule&#45;&gt;AppComponent  -->
<g id="edge3" class="edge">
<title>AppModule&#45;&gt;AppComponent </title>
<path fill="none" stroke="#000000" stroke-dasharray="1,5" d="M158,-187.1061C158,-187.1061 158,-205.991 158,-205.991"/>
<polygon fill="#000000" stroke="#000000" points="154.5001,-205.9909 158,-215.991 161.5001,-205.991 154.5001,-205.9909"/>
</g>
<!-- AppRoutingModule -->
<g id="node3" class="node">
<title>AppRoutingModule</title>
<polygon fill="#8dd3c7" stroke="#000000" points="152.2744,-122 149.2744,-126 128.2744,-126 125.2744,-122 23.7256,-122 23.7256,-86 152.2744,-86 152.2744,-122"/>
<text text-anchor="middle" x="88" y="-99.8" font-family="Times,serif" font-size="14.00" fill="#000000">AppRoutingModule</text>
</g>
<!-- AppRoutingModule&#45;&gt;AppModule -->
<g id="edge2" class="edge">
<title>AppRoutingModule&#45;&gt;AppModule</title>
<path fill="none" stroke="#000000" d="M134.2795,-122.1061C134.2795,-122.1061 134.2795,-140.991 134.2795,-140.991"/>
<polygon fill="#000000" stroke="#000000" points="130.7795,-140.9909 134.2795,-150.991 137.7795,-140.991 130.7795,-140.9909"/>
</g>
<!-- CreatorsPage -->
<g id="node5" class="node">
<title>CreatorsPage</title>
<polygon fill="#ffffb3" stroke="#000000" points="616.1347,-122 525.8653,-122 525.8653,-86 616.1347,-86 616.1347,-122"/>
<text text-anchor="middle" x="571" y="-99.8" font-family="Times,serif" font-size="14.00" fill="#000000">CreatorsPage</text>
</g>
<!-- CreatorsPageModule -->
<g id="node6" class="node">
<title>CreatorsPageModule</title>
<polygon fill="#8dd3c7" stroke="#000000" points="551.1839,-187 548.1839,-191 527.1839,-191 524.1839,-187 416.8161,-187 416.8161,-151 551.1839,-151 551.1839,-187"/>
<text text-anchor="middle" x="484" y="-164.8" font-family="Times,serif" font-size="14.00" fill="#000000">CreatorsPageModule</text>
</g>
<!-- CreatorsPage&#45;&gt;CreatorsPageModule -->
<g id="edge4" class="edge">
<title>CreatorsPage&#45;&gt;CreatorsPageModule</title>
<path fill="none" stroke="#000000" d="M538.3874,-122.1061C538.3874,-122.1061 538.3874,-140.991 538.3874,-140.991"/>
<polygon fill="#000000" stroke="#000000" points="534.8875,-140.9909 538.3874,-150.991 541.8875,-140.991 534.8875,-140.9909"/>
</g>
<!-- CreatorsPageRoutingModule -->
<g id="node7" class="node">
<title>CreatorsPageRoutingModule</title>
<polygon fill="#8dd3c7" stroke="#000000" points="501.8019,-122 498.8019,-126 477.8019,-126 474.8019,-122 322.1981,-122 322.1981,-86 501.8019,-86 501.8019,-122"/>
<text text-anchor="middle" x="412" y="-99.8" font-family="Times,serif" font-size="14.00" fill="#000000">CreatorsPageRoutingModule</text>
</g>
<!-- CreatorsPageRoutingModule&#45;&gt;CreatorsPageModule -->
<g id="edge5" class="edge">
<title>CreatorsPageRoutingModule&#45;&gt;CreatorsPageModule</title>
<path fill="none" stroke="#000000" d="M459.2795,-122.1061C459.2795,-122.1061 459.2795,-140.991 459.2795,-140.991"/>
<polygon fill="#000000" stroke="#000000" points="455.7795,-140.9909 459.2795,-150.991 462.7795,-140.991 455.7795,-140.9909"/>
</g>
<!-- DetailPage -->
<g id="node8" class="node">
<title>DetailPage</title>
<polygon fill="#ffffb3" stroke="#000000" points="923.9205,-122 846.0795,-122 846.0795,-86 923.9205,-86 923.9205,-122"/>
<text text-anchor="middle" x="885" y="-99.8" font-family="Times,serif" font-size="14.00" fill="#000000">DetailPage</text>
</g>
<!-- DetailPageModule -->
<g id="node9" class="node">
<title>DetailPageModule</title>
<polygon fill="#8dd3c7" stroke="#000000" points="865.4692,-187 862.4692,-191 841.4692,-191 838.4692,-187 744.5308,-187 744.5308,-151 865.4692,-151 865.4692,-187"/>
<text text-anchor="middle" x="805" y="-164.8" font-family="Times,serif" font-size="14.00" fill="#000000">DetailPageModule</text>
</g>
<!-- DetailPage&#45;&gt;DetailPageModule -->
<g id="edge6" class="edge">
<title>DetailPage&#45;&gt;DetailPageModule</title>
<path fill="none" stroke="#000000" d="M859.0865,-122.1061C859.0865,-122.1061 859.0865,-140.991 859.0865,-140.991"/>
<polygon fill="#000000" stroke="#000000" points="855.5866,-140.9909 859.0865,-150.991 862.5866,-140.991 855.5866,-140.9909"/>
</g>
<!-- DetailPage&#45;&gt;DetailPageModule -->
<g id="edge8" class="edge">
<title>DetailPage&#45;&gt;DetailPageModule</title>
<path fill="none" stroke="#000000" d="M852.6884,-122.1061C852.6884,-122.1061 852.6884,-140.991 852.6884,-140.991"/>
<polygon fill="#000000" stroke="#000000" points="849.1885,-140.9909 852.6884,-150.991 856.1885,-140.991 849.1885,-140.9909"/>
</g>
<!-- DetailPageRoutingModule -->
<g id="node10" class="node">
<title>DetailPageRoutingModule</title>
<polygon fill="#8dd3c7" stroke="#000000" points="822.087,-122 819.087,-126 798.087,-126 795.087,-122 655.913,-122 655.913,-86 822.087,-86 822.087,-122"/>
<text text-anchor="middle" x="739" y="-99.8" font-family="Times,serif" font-size="14.00" fill="#000000">DetailPageRoutingModule</text>
</g>
<!-- DetailPageRoutingModule&#45;&gt;DetailPageModule -->
<g id="edge7" class="edge">
<title>DetailPageRoutingModule&#45;&gt;DetailPageModule</title>
<path fill="none" stroke="#000000" d="M796.2008,-122.1061C796.2008,-122.1061 796.2008,-140.991 796.2008,-140.991"/>
<polygon fill="#000000" stroke="#000000" points="792.7009,-140.9909 796.2008,-150.991 799.7009,-140.991 792.7009,-140.9909"/>
</g>
<!-- DetailPageRoutingModule&#45;&gt;DetailPageModule -->
<g id="edge9" class="edge">
<title>DetailPageRoutingModule&#45;&gt;DetailPageModule</title>
<path fill="none" stroke="#000000" d="M770.3581,-122.1061C770.3581,-122.1061 770.3581,-140.991 770.3581,-140.991"/>
<polygon fill="#000000" stroke="#000000" points="766.8582,-140.9909 770.3581,-150.991 773.8582,-140.991 766.8582,-140.9909"/>
</g>
<!-- EndPage -->
<g id="node11" class="node">
<title>EndPage</title>
<polygon fill="#ffffb3" stroke="#000000" points="1207.7648,-122 1142.2352,-122 1142.2352,-86 1207.7648,-86 1207.7648,-122"/>
<text text-anchor="middle" x="1175" y="-99.8" font-family="Times,serif" font-size="14.00" fill="#000000">EndPage</text>
</g>
<!-- EndPageModule -->
<g id="node12" class="node">
<title>EndPageModule</title>
<polygon fill="#8dd3c7" stroke="#000000" points="1155.8147,-187 1152.8147,-191 1131.8147,-191 1128.8147,-187 1046.1853,-187 1046.1853,-151 1155.8147,-151 1155.8147,-187"/>
<text text-anchor="middle" x="1101" y="-164.8" font-family="Times,serif" font-size="14.00" fill="#000000">EndPageModule</text>
</g>
<!-- EndPage&#45;&gt;EndPageModule -->
<g id="edge10" class="edge">
<title>EndPage&#45;&gt;EndPageModule</title>
<path fill="none" stroke="#000000" d="M1148.8875,-122.1061C1148.8875,-122.1061 1148.8875,-140.991 1148.8875,-140.991"/>
<polygon fill="#000000" stroke="#000000" points="1145.3875,-140.9909 1148.8875,-150.991 1152.3875,-140.991 1145.3875,-140.9909"/>
</g>
<!-- EndPageRoutingModule -->
<g id="node13" class="node">
<title>EndPageRoutingModule</title>
<polygon fill="#8dd3c7" stroke="#000000" points="1118.4326,-122 1115.4326,-126 1094.4326,-126 1091.4326,-122 963.5674,-122 963.5674,-86 1118.4326,-86 1118.4326,-122"/>
<text text-anchor="middle" x="1041" y="-99.8" font-family="Times,serif" font-size="14.00" fill="#000000">EndPageRoutingModule</text>
</g>
<!-- EndPageRoutingModule&#45;&gt;EndPageModule -->
<g id="edge11" class="edge">
<title>EndPageRoutingModule&#45;&gt;EndPageModule</title>
<path fill="none" stroke="#000000" d="M1082.2795,-122.1061C1082.2795,-122.1061 1082.2795,-140.991 1082.2795,-140.991"/>
<polygon fill="#000000" stroke="#000000" points="1078.7795,-140.9909 1082.2795,-150.991 1085.7795,-140.991 1078.7795,-140.9909"/>
</g>
<!-- IndexPage -->
<g id="node14" class="node">
<title>IndexPage</title>
<polygon fill="#ffffb3" stroke="#000000" points="1511.5871,-122 1436.4129,-122 1436.4129,-86 1511.5871,-86 1511.5871,-122"/>
<text text-anchor="middle" x="1474" y="-99.8" font-family="Times,serif" font-size="14.00" fill="#000000">IndexPage</text>
</g>
<!-- IndexPageModule -->
<g id="node15" class="node">
<title>IndexPageModule</title>
<polygon fill="#8dd3c7" stroke="#000000" points="1454.1374,-187 1451.1374,-191 1430.1374,-191 1427.1374,-187 1335.8626,-187 1335.8626,-151 1454.1374,-151 1454.1374,-187"/>
<text text-anchor="middle" x="1395" y="-164.8" font-family="Times,serif" font-size="14.00" fill="#000000">IndexPageModule</text>
</g>
<!-- IndexPage&#45;&gt;IndexPageModule -->
<g id="edge12" class="edge">
<title>IndexPage&#45;&gt;IndexPageModule</title>
<path fill="none" stroke="#000000" d="M1448.3644,-122.1061C1448.3644,-122.1061 1448.3644,-140.991 1448.3644,-140.991"/>
<polygon fill="#000000" stroke="#000000" points="1444.8645,-140.9909 1448.3644,-150.991 1451.8645,-140.991 1444.8645,-140.9909"/>
</g>
<!-- IndexPage&#45;&gt;IndexPageModule -->
<g id="edge14" class="edge">
<title>IndexPage&#45;&gt;IndexPageModule</title>
<path fill="none" stroke="#000000" d="M1442.4105,-122.1061C1442.4105,-122.1061 1442.4105,-140.991 1442.4105,-140.991"/>
<polygon fill="#000000" stroke="#000000" points="1438.9106,-140.9909 1442.4105,-150.991 1445.9106,-140.991 1438.9106,-140.9909"/>
</g>
<!-- IndexPageRoutingModule -->
<g id="node16" class="node">
<title>IndexPageRoutingModule</title>
<polygon fill="#8dd3c7" stroke="#000000" points="1411.7548,-122 1408.7548,-126 1387.7548,-126 1384.7548,-122 1248.2452,-122 1248.2452,-86 1411.7548,-86 1411.7548,-122"/>
<text text-anchor="middle" x="1330" y="-99.8" font-family="Times,serif" font-size="14.00" fill="#000000">IndexPageRoutingModule</text>
</g>
<!-- IndexPageRoutingModule&#45;&gt;IndexPageModule -->
<g id="edge13" class="edge">
<title>IndexPageRoutingModule&#45;&gt;IndexPageModule</title>
<path fill="none" stroke="#000000" d="M1361.0802,-122.1061C1361.0802,-122.1061 1361.0802,-140.991 1361.0802,-140.991"/>
<polygon fill="#000000" stroke="#000000" points="1357.5803,-140.9909 1361.0802,-150.991 1364.5803,-140.991 1357.5803,-140.9909"/>
</g>
<!-- IndexPageRoutingModule&#45;&gt;IndexPageModule -->
<g id="edge15" class="edge">
<title>IndexPageRoutingModule&#45;&gt;IndexPageModule</title>
<path fill="none" stroke="#000000" d="M1386.4787,-122.1061C1386.4787,-122.1061 1386.4787,-140.991 1386.4787,-140.991"/>
<polygon fill="#000000" stroke="#000000" points="1382.9788,-140.9909 1386.4787,-150.991 1389.9788,-140.991 1382.9788,-140.9909"/>
</g>
<!-- LoginPage -->
<g id="node17" class="node">
<title>LoginPage</title>
<polygon fill="#ffffb3" stroke="#000000" points="1818.1558,-122 1741.8442,-122 1741.8442,-86 1818.1558,-86 1818.1558,-122"/>
<text text-anchor="middle" x="1780" y="-99.8" font-family="Times,serif" font-size="14.00" fill="#000000">LoginPage</text>
</g>
<!-- LoginPageModule -->
<g id="node18" class="node">
<title>LoginPageModule</title>
<polygon fill="#8dd3c7" stroke="#000000" points="1760.205,-187 1757.205,-191 1736.205,-191 1733.205,-187 1639.795,-187 1639.795,-151 1760.205,-151 1760.205,-187"/>
<text text-anchor="middle" x="1700" y="-164.8" font-family="Times,serif" font-size="14.00" fill="#000000">LoginPageModule</text>
</g>
<!-- LoginPage&#45;&gt;LoginPageModule -->
<g id="edge16" class="edge">
<title>LoginPage&#45;&gt;LoginPageModule</title>
<path fill="none" stroke="#000000" d="M1750.8875,-122.1061C1750.8875,-122.1061 1750.8875,-140.991 1750.8875,-140.991"/>
<polygon fill="#000000" stroke="#000000" points="1747.3875,-140.9909 1750.8875,-150.991 1754.3875,-140.991 1747.3875,-140.9909"/>
</g>
<!-- LoginPageRoutingModule -->
<g id="node19" class="node">
<title>LoginPageRoutingModule</title>
<polygon fill="#8dd3c7" stroke="#000000" points="1717.8229,-122 1714.8229,-126 1693.8229,-126 1690.8229,-122 1552.1771,-122 1552.1771,-86 1717.8229,-86 1717.8229,-122"/>
<text text-anchor="middle" x="1635" y="-99.8" font-family="Times,serif" font-size="14.00" fill="#000000">LoginPageRoutingModule</text>
</g>
<!-- LoginPageRoutingModule&#45;&gt;LoginPageModule -->
<g id="edge17" class="edge">
<title>LoginPageRoutingModule&#45;&gt;LoginPageModule</title>
<path fill="none" stroke="#000000" d="M1678.7795,-122.1061C1678.7795,-122.1061 1678.7795,-140.991 1678.7795,-140.991"/>
<polygon fill="#000000" stroke="#000000" points="1675.2795,-140.9909 1678.7795,-150.991 1682.2795,-140.991 1675.2795,-140.9909"/>
</g>
<!-- SigninPage -->
<g id="node20" class="node">
<title>SigninPage</title>
<polygon fill="#ffffb3" stroke="#000000" points="2129.7759,-122 2050.2241,-122 2050.2241,-86 2129.7759,-86 2129.7759,-122"/>
<text text-anchor="middle" x="2090" y="-99.8" font-family="Times,serif" font-size="14.00" fill="#000000">SigninPage</text>
</g>
<!-- SigninPageModule -->
<g id="node21" class="node">
<title>SigninPageModule</title>
<polygon fill="#8dd3c7" stroke="#000000" points="2070.8258,-187 2067.8258,-191 2046.8258,-191 2043.8258,-187 1947.1742,-187 1947.1742,-151 2070.8258,-151 2070.8258,-187"/>
<text text-anchor="middle" x="2009" y="-164.8" font-family="Times,serif" font-size="14.00" fill="#000000">SigninPageModule</text>
</g>
<!-- SigninPage&#45;&gt;SigninPageModule -->
<g id="edge18" class="edge">
<title>SigninPage&#45;&gt;SigninPageModule</title>
<path fill="none" stroke="#000000" d="M2060.3875,-122.1061C2060.3875,-122.1061 2060.3875,-140.991 2060.3875,-140.991"/>
<polygon fill="#000000" stroke="#000000" points="2056.8875,-140.9909 2060.3875,-150.991 2063.8875,-140.991 2056.8875,-140.9909"/>
</g>
<!-- SigninPageRoutingModule -->
<g id="node22" class="node">
<title>SigninPageRoutingModule</title>
<polygon fill="#8dd3c7" stroke="#000000" points="2026.4438,-122 2023.4438,-126 2002.4438,-126 1999.4438,-122 1857.5562,-122 1857.5562,-86 2026.4438,-86 2026.4438,-122"/>
<text text-anchor="middle" x="1942" y="-99.8" font-family="Times,serif" font-size="14.00" fill="#000000">SigninPageRoutingModule</text>
</g>
<!-- SigninPageRoutingModule&#45;&gt;SigninPageModule -->
<g id="edge19" class="edge">
<title>SigninPageRoutingModule&#45;&gt;SigninPageModule</title>
<path fill="none" stroke="#000000" d="M1986.7795,-122.1061C1986.7795,-122.1061 1986.7795,-140.991 1986.7795,-140.991"/>
<polygon fill="#000000" stroke="#000000" points="1983.2795,-140.9909 1986.7795,-150.991 1990.2795,-140.991 1983.2795,-140.9909"/>
</g>
<!-- TabsPage -->
<g id="node23" class="node">
<title>TabsPage</title>
<polygon fill="#ffffb3" stroke="#000000" points="2254.4249,-122 2183.5751,-122 2183.5751,-86 2254.4249,-86 2254.4249,-122"/>
<text text-anchor="middle" x="2219" y="-99.8" font-family="Times,serif" font-size="14.00" fill="#000000">TabsPage</text>
</g>
<!-- TabsPageModule -->
<g id="node24" class="node">
<title>TabsPageModule</title>
<polygon fill="#8dd3c7" stroke="#000000" points="2275.9734,-187 2272.9734,-191 2251.9734,-191 2248.9734,-187 2162.0266,-187 2162.0266,-151 2275.9734,-151 2275.9734,-187"/>
<text text-anchor="middle" x="2219" y="-164.8" font-family="Times,serif" font-size="14.00" fill="#000000">TabsPageModule</text>
</g>
<!-- TabsPage&#45;&gt;TabsPageModule -->
<g id="edge20" class="edge">
<title>TabsPage&#45;&gt;TabsPageModule</title>
<path fill="none" stroke="#000000" d="M2219,-122.1061C2219,-122.1061 2219,-140.991 2219,-140.991"/>
<polygon fill="#000000" stroke="#000000" points="2215.5001,-140.9909 2219,-150.991 2222.5001,-140.991 2215.5001,-140.9909"/>
</g>
</g>
</svg>
