<?xml version="1.0" encoding="UTF-8" standalone="no"?>
<!DOCTYPE svg PUBLIC "-//W3C//DTD SVG 1.1//EN"
 "http://www.w3.org/Graphics/SVG/1.1/DTD/svg11.dtd">
<!-- Generated by graphviz version 2.40.1 (20161225.0304)
 -->
<!-- Title: dependencies Pages: 1 -->
<svg width="504pt" height="211pt"
 viewBox="0.00 0.00 504.00 211.00" xmlns="http://www.w3.org/2000/svg" xmlns:xlink="http://www.w3.org/1999/xlink">
<g id="graph0" class="graph" transform="scale(1 1) rotate(0) translate(4 207)">
<title>dependencies</title>
<polygon fill="#ffffff" stroke="transparent" points="-4,4 -4,-207 500,-207 500,4 -4,4"/>
<text text-anchor="start" x="227.0091" y="-42.4" font-family="sans-serif" font-weight="bold" font-size="14.00" fill="#000000">Legend</text>
<polygon fill="#ffffb3" stroke="transparent" points="14,-10 14,-30 34,-30 34,-10 14,-10"/>
<text text-anchor="start" x="37.629" y="-15.4" font-family="sans-serif" font-size="14.00" fill="#000000"> &#160;Declarations</text>
<polygon fill="#8dd3c7" stroke="transparent" points="127,-10 127,-30 147,-30 147,-10 127,-10"/>
<text text-anchor="start" x="150.7251" y="-15.4" font-family="sans-serif" font-size="14.00" fill="#000000"> &#160;Module</text>
<polygon fill="#80b1d3" stroke="transparent" points="213,-10 213,-30 233,-30 233,-10 213,-10"/>
<text text-anchor="start" x="236.7812" y="-15.4" font-family="sans-serif" font-size="14.00" fill="#000000"> &#160;Bootstrap</text>
<polygon fill="#fdb462" stroke="transparent" points="310,-10 310,-30 330,-30 330,-10 310,-10"/>
<text text-anchor="start" x="333.6732" y="-15.4" font-family="sans-serif" font-size="14.00" fill="#000000"> &#160;Providers</text>
<polygon fill="#fb8072" stroke="transparent" points="406,-10 406,-30 426,-30 426,-10 406,-10"/>
<text text-anchor="start" x="429.7258" y="-15.4" font-family="sans-serif" font-size="14.00" fill="#000000"> &#160;Exports</text>
<g id="clust1" class="cluster">
<title>cluster_SigninPageModule</title>
<polygon fill="none" stroke="#000000" stroke-dasharray="1,5" points="96,-70 96,-195 400,-195 400,-70 96,-70"/>
</g>
<g id="clust2" class="cluster">
<title>cluster_SigninPageModule_declarations</title>
<polygon fill="none" stroke="#000000" points="296,-78 296,-130 392,-130 392,-78 296,-78"/>
</g>
<g id="clust4" class="cluster">
<title>cluster_SigninPageModule_imports</title>
<polygon fill="none" stroke="#000000" points="104,-78 104,-130 288,-130 288,-78 104,-78"/>
</g>
<!-- SigninPage -->
<g id="node1" class="node">
<title>SigninPage</title>
<polygon fill="#ffffb3" stroke="#000000" points="383.7759,-122 304.2241,-122 304.2241,-86 383.7759,-86 383.7759,-122"/>
<text text-anchor="middle" x="344" y="-99.8" font-family="Times,serif" font-size="14.00" fill="#000000">SigninPage</text>
</g>
<!-- SigninPageModule -->
<g id="node2" class="node">
<title>SigninPageModule</title>
<polygon fill="#8dd3c7" stroke="#000000" points="324.8258,-187 321.8258,-191 300.8258,-191 297.8258,-187 201.1742,-187 201.1742,-151 324.8258,-151 324.8258,-187"/>
<text text-anchor="middle" x="263" y="-164.8" font-family="Times,serif" font-size="14.00" fill="#000000">SigninPageModule</text>
</g>
<!-- SigninPage&#45;&gt;SigninPageModule -->
<g id="edge1" class="edge">
<title>SigninPage&#45;&gt;SigninPageModule</title>
<path fill="none" stroke="#000000" d="M314.3875,-122.1061C314.3875,-122.1061 314.3875,-140.991 314.3875,-140.991"/>
<polygon fill="#000000" stroke="#000000" points="310.8875,-140.9909 314.3875,-150.991 317.8875,-140.991 310.8875,-140.9909"/>
</g>
<!-- SigninPageRoutingModule -->
<g id="node3" class="node">
<title>SigninPageRoutingModule</title>
<polygon fill="#8dd3c7" stroke="#000000" points="280.4438,-122 277.4438,-126 256.4438,-126 253.4438,-122 111.5562,-122 111.5562,-86 280.4438,-86 280.4438,-122"/>
<text text-anchor="middle" x="196" y="-99.8" font-family="Times,serif" font-size="14.00" fill="#000000">SigninPageRoutingModule</text>
</g>
<!-- SigninPageRoutingModule&#45;&gt;SigninPageModule -->
<g id="edge2" class="edge">
<title>SigninPageRoutingModule&#45;&gt;SigninPageModule</title>
<path fill="none" stroke="#000000" d="M240.7795,-122.1061C240.7795,-122.1061 240.7795,-140.991 240.7795,-140.991"/>
<polygon fill="#000000" stroke="#000000" points="237.2795,-140.9909 240.7795,-150.991 244.2795,-140.991 237.2795,-140.9909"/>
</g>
</g>
</svg>
