<?xml version="1.0" encoding="UTF-8" standalone="no"?>
<!DOCTYPE svg PUBLIC "-//W3C//DTD SVG 1.1//EN"
 "http://www.w3.org/Graphics/SVG/1.1/DTD/svg11.dtd">
<!-- Generated by graphviz version 2.40.1 (20161225.0304)
 -->
<!-- Title: dependencies Pages: 1 -->
<svg width="504pt" height="211pt"
 viewBox="0.00 0.00 504.00 211.00" xmlns="http://www.w3.org/2000/svg" xmlns:xlink="http://www.w3.org/1999/xlink">
<g id="graph0" class="graph" transform="scale(1 1) rotate(0) translate(4 207)">
<title>dependencies</title>
<polygon fill="#ffffff" stroke="transparent" points="-4,4 -4,-207 500,-207 500,4 -4,4"/>
<text text-anchor="start" x="227.0091" y="-42.4" font-family="sans-serif" font-weight="bold" font-size="14.00" fill="#000000">Legend</text>
<polygon fill="#ffffb3" stroke="transparent" points="14,-10 14,-30 34,-30 34,-10 14,-10"/>
<text text-anchor="start" x="37.629" y="-15.4" font-family="sans-serif" font-size="14.00" fill="#000000"> &#160;Declarations</text>
<polygon fill="#8dd3c7" stroke="transparent" points="127,-10 127,-30 147,-30 147,-10 127,-10"/>
<text text-anchor="start" x="150.7251" y="-15.4" font-family="sans-serif" font-size="14.00" fill="#000000"> &#160;Module</text>
<polygon fill="#80b1d3" stroke="transparent" points="213,-10 213,-30 233,-30 233,-10 213,-10"/>
<text text-anchor="start" x="236.7812" y="-15.4" font-family="sans-serif" font-size="14.00" fill="#000000"> &#160;Bootstrap</text>
<polygon fill="#fdb462" stroke="transparent" points="310,-10 310,-30 330,-30 330,-10 310,-10"/>
<text text-anchor="start" x="333.6732" y="-15.4" font-family="sans-serif" font-size="14.00" fill="#000000"> &#160;Providers</text>
<polygon fill="#fb8072" stroke="transparent" points="406,-10 406,-30 426,-30 426,-10 406,-10"/>
<text text-anchor="start" x="429.7258" y="-15.4" font-family="sans-serif" font-size="14.00" fill="#000000"> &#160;Exports</text>
<g id="clust1" class="cluster">
<title>cluster_IndexPageModule</title>
<polygon fill="none" stroke="#000000" stroke-dasharray="1,5" points="100,-70 100,-195 396,-195 396,-70 100,-70"/>
</g>
<g id="clust2" class="cluster">
<title>cluster_IndexPageModule_declarations</title>
<polygon fill="none" stroke="#000000" points="296,-78 296,-130 388,-130 388,-78 296,-78"/>
</g>
<g id="clust4" class="cluster">
<title>cluster_IndexPageModule_imports</title>
<polygon fill="none" stroke="#000000" points="108,-78 108,-130 288,-130 288,-78 108,-78"/>
</g>
<!-- IndexPage -->
<g id="node1" class="node">
<title>IndexPage</title>
<polygon fill="#ffffb3" stroke="#000000" points="379.5871,-122 304.4129,-122 304.4129,-86 379.5871,-86 379.5871,-122"/>
<text text-anchor="middle" x="342" y="-99.8" font-family="Times,serif" font-size="14.00" fill="#000000">IndexPage</text>
</g>
<!-- IndexPageModule -->
<g id="node2" class="node">
<title>IndexPageModule</title>
<polygon fill="#8dd3c7" stroke="#000000" points="322.1374,-187 319.1374,-191 298.1374,-191 295.1374,-187 203.8626,-187 203.8626,-151 322.1374,-151 322.1374,-187"/>
<text text-anchor="middle" x="263" y="-164.8" font-family="Times,serif" font-size="14.00" fill="#000000">IndexPageModule</text>
</g>
<!-- IndexPage&#45;&gt;IndexPageModule -->
<g id="edge1" class="edge">
<title>IndexPage&#45;&gt;IndexPageModule</title>
<path fill="none" stroke="#000000" d="M313.3875,-122.1061C313.3875,-122.1061 313.3875,-140.991 313.3875,-140.991"/>
<polygon fill="#000000" stroke="#000000" points="309.8875,-140.9909 313.3875,-150.991 316.8875,-140.991 309.8875,-140.9909"/>
</g>
<!-- IndexPageRoutingModule -->
<g id="node3" class="node">
<title>IndexPageRoutingModule</title>
<polygon fill="#8dd3c7" stroke="#000000" points="279.7548,-122 276.7548,-126 255.7548,-126 252.7548,-122 116.2452,-122 116.2452,-86 279.7548,-86 279.7548,-122"/>
<text text-anchor="middle" x="198" y="-99.8" font-family="Times,serif" font-size="14.00" fill="#000000">IndexPageRoutingModule</text>
</g>
<!-- IndexPageRoutingModule&#45;&gt;IndexPageModule -->
<g id="edge2" class="edge">
<title>IndexPageRoutingModule&#45;&gt;IndexPageModule</title>
<path fill="none" stroke="#000000" d="M241.7795,-122.1061C241.7795,-122.1061 241.7795,-140.991 241.7795,-140.991"/>
<polygon fill="#000000" stroke="#000000" points="238.2795,-140.9909 241.7795,-150.991 245.2795,-140.991 238.2795,-140.9909"/>
</g>
</g>
</svg>
